<mxfile host="65bd71144e">
    <diagram id="XxGkoGaLR7qPLv16XLBu" name="Page-1">
        <mxGraphModel dx="1074" dy="741" grid="1" gridSize="10" guides="1" tooltips="1" connect="1" arrows="1" fold="1" page="1" pageScale="1" pageWidth="827" pageHeight="1169" math="0" shadow="0">
            <root>
                <mxCell id="0"/>
                <mxCell id="1" parent="0"/>
                <mxCell id="2" value="" style="rounded=0;whiteSpace=wrap;html=1;" vertex="1" parent="1">
                    <mxGeometry x="40" y="40" width="540" height="320" as="geometry"/>
                </mxCell>
                <mxCell id="3" value="&amp;nbsp; &amp;nbsp; &amp;nbsp; &amp;nbsp;Scalene, equilateral or isosceles?" style="rounded=0;whiteSpace=wrap;html=1;align=left;" vertex="1" parent="1">
                    <mxGeometry x="40" y="40" width="540" height="40" as="geometry"/>
                </mxCell>
                <mxCell id="4" value="" style="line;strokeWidth=1;html=1;" vertex="1" parent="1">
                    <mxGeometry x="60" y="130" width="160" height="10" as="geometry"/>
                </mxCell>
                <mxCell id="5" value="Enter angle 1:" style="text;html=1;align=center;verticalAlign=middle;resizable=0;points=[];autosize=1;strokeColor=none;fillColor=none;" vertex="1" parent="1">
                    <mxGeometry x="50" y="100" width="90" height="20" as="geometry"/>
                </mxCell>
                <mxCell id="6" value="Enter angle 2:" style="text;html=1;align=center;verticalAlign=middle;resizable=0;points=[];autosize=1;strokeColor=none;fillColor=none;" vertex="1" parent="1">
                    <mxGeometry x="50" y="160" width="90" height="20" as="geometry"/>
                </mxCell>
                <mxCell id="7" value="" style="line;strokeWidth=1;html=1;" vertex="1" parent="1">
                    <mxGeometry x="60" y="190" width="160" height="10" as="geometry"/>
                </mxCell>
                <mxCell id="8" value="Enter angle 3:" style="text;html=1;align=center;verticalAlign=middle;resizable=0;points=[];autosize=1;strokeColor=none;fillColor=none;" vertex="1" parent="1">
                    <mxGeometry x="50" y="220" width="90" height="20" as="geometry"/>
                </mxCell>
                <mxCell id="9" value="" style="line;strokeWidth=1;html=1;" vertex="1" parent="1">
                    <mxGeometry x="60" y="250" width="160" height="10" as="geometry"/>
                </mxCell>
                <mxCell id="10" value="Calculate" style="rounded=1;whiteSpace=wrap;html=1;strokeWidth=1;" vertex="1" parent="1">
                    <mxGeometry x="60" y="280" width="60" height="20" as="geometry"/>
                </mxCell>
                <mxCell id="11" value="&lt;font color=&quot;#8f8f8f&quot;&gt;60&lt;/font&gt;" style="text;html=1;align=center;verticalAlign=middle;resizable=0;points=[];autosize=1;strokeColor=none;fillColor=none;" vertex="1" parent="1">
                    <mxGeometry x="59" y="120" width="30" height="20" as="geometry"/>
                </mxCell>
                <mxCell id="12" value="&lt;font color=&quot;#8f8f8f&quot;&gt;60&lt;/font&gt;" style="text;html=1;align=center;verticalAlign=middle;resizable=0;points=[];autosize=1;strokeColor=none;fillColor=none;" vertex="1" parent="1">
                    <mxGeometry x="60" y="180" width="30" height="20" as="geometry"/>
                </mxCell>
                <mxCell id="13" value="&lt;font color=&quot;#8f8f8f&quot;&gt;60&lt;/font&gt;" style="text;html=1;align=center;verticalAlign=middle;resizable=0;points=[];autosize=1;strokeColor=none;fillColor=none;" vertex="1" parent="1">
                    <mxGeometry x="60" y="240" width="30" height="20" as="geometry"/>
                </mxCell>
                <mxCell id="14" value="&lt;font color=&quot;#000000&quot;&gt;Your triangle is an equilateral triangle.&lt;/font&gt;" style="text;html=1;align=center;verticalAlign=middle;resizable=0;points=[];autosize=1;strokeColor=none;fillColor=none;fontColor=#8F8F8F;" vertex="1" parent="1">
                    <mxGeometry x="50" y="320" width="220" height="20" as="geometry"/>
                </mxCell>
            </root>
        </mxGraphModel>
    </diagram>
</mxfile>